<?xml version="1.0" standalone="no"?>
<!DOCTYPE svg PUBLIC "-//W3C//DTD SVG 20010904//EN"
 "http://www.w3.org/TR/2001/REC-SVG-20010904/DTD/svg10.dtd">
<svg version="1.0" xmlns="http://www.w3.org/2000/svg"
 width="260.000000pt" height="260.000000pt" viewBox="0 0 260.000000 260.000000"
 preserveAspectRatio="xMidYMid meet">
<metadata>
Created by potrace 1.11, written by Peter Selinger 2001-2013
</metadata>
<g transform="translate(0.000000,260.000000) scale(0.100000,-0.100000)"
fill="#000000" stroke="none">
<path d="M0 1300 l0 -1300 1300 0 1300 0 0 1300 0 1300 -1300 0 -1300 0 0
-1300z m574 684 c14 -14 16 -79 16 -565 0 -302 1 -550 3 -551 1 -1 116 -5 256
-8 227 -4 255 -7 265 -22 8 -13 8 -23 0 -35 -10 -16 -36 -18 -273 -21 -173 -1
-269 1 -282 8 -11 6 -29 26 -39 43 -19 31 -20 55 -20 581 0 497 2 551 17 568
20 22 37 23 57 2z m1514 4 c9 -9 12 -148 12 -565 0 -592 0 -596 -49 -623 -33
-17 -95 -12 -119 11 -12 11 -48 70 -80 131 -31 61 -61 119 -67 129 -5 11 -13
19 -17 19 -5 0 -8 7 -8 16 0 10 -6 14 -15 10 -18 -7 -34 20 -28 48 4 17 3 18
-6 6 -9 -13 -11 -12 -12 5 -1 11 -1 29 -1 40 1 13 -1 16 -6 8 -5 -9 -11 -6
-21 8 -7 12 -8 18 -3 15 6 -3 9 0 8 6 -3 21 -17 39 -26 33 -4 -3 -11 2 -14 11
-10 25 -7 36 7 28 8 -5 8 -2 -2 9 -15 18 -26 23 -16 7 3 -5 4 -10 1 -10 -3 0
-10 10 -17 21 -9 17 -8 20 3 14 7 -3 5 0 -6 9 -12 9 -17 23 -13 36 3 11 0 23
-5 27 -7 3 -8 1 -4 -5 4 -7 3 -12 -3 -12 -5 0 -13 14 -16 31 -5 22 -10 28 -15
19 -6 -9 -9 -6 -12 11 -2 13 4 29 12 36 13 10 12 12 -7 8 -21 -4 -56 25 -51
41 2 5 -1 10 -7 11 -5 1 -13 12 -17 25 -7 22 -7 22 -5 -2 2 -14 8 -24 15 -22
8 1 11 -2 7 -8 -5 -8 -11 -8 -19 -1 -7 6 -17 7 -21 3 -5 -4 -6 0 -3 9 5 12 1
15 -18 11 -16 -3 -24 -11 -24 -24 0 -27 -19 -60 -31 -53 -5 4 -9 22 -9 41 0
27 4 34 20 34 15 0 20 7 20 25 0 20 5 25 26 25 17 0 23 -4 18 -12 -4 -7 2 -5
14 6 18 16 20 22 9 40 -6 11 -12 29 -13 38 -2 30 -78 177 -91 178 -10 0 -13
-114 -13 -539 0 -477 -2 -541 -16 -555 -20 -21 -37 -20 -58 3 -15 17 -16 65
-14 569 l3 552 28 27 c21 22 37 28 71 28 23 0 50 -6 60 -14 9 -8 42 -62 72
-120 31 -58 66 -119 77 -135 11 -16 20 -35 20 -42 0 -7 3 -13 6 -12 20 2 31
-4 31 -18 0 -9 5 -12 13 -8 8 6 8 3 -1 -9 -12 -14 -11 -16 6 -12 15 3 19 -2
16 -21 -1 -13 3 -24 9 -24 8 0 7 -4 -2 -9 -11 -7 -9 -10 8 -16 13 -4 21 -15
21 -29 0 -13 6 -29 14 -36 8 -6 13 -17 10 -25 -3 -7 0 -16 7 -21 8 -4 10 -3 5
4 -4 7 -5 12 -2 12 3 0 10 -10 17 -21 8 -16 8 -20 -1 -14 -6 4 0 -11 15 -34
15 -22 25 -47 21 -56 -5 -13 -2 -14 15 -4 16 8 20 8 14 -1 -10 -17 3 -62 17
-54 6 4 8 3 5 -3 -4 -6 13 -30 37 -55 23 -25 43 -52 43 -61 0 -9 -4 -14 -9
-11 -4 3 -8 0 -8 -5 0 -6 6 -11 13 -11 8 0 9 -3 1 -8 -6 -4 -10 -15 -8 -25 1
-9 -2 -14 -7 -11 -6 3 13 -40 41 -95 27 -56 55 -101 60 -101 7 0 10 192 10
546 0 357 4 552 10 565 12 21 50 25 68 7z m-628 -317 c14 -27 -1 -33 -28 -11
-27 22 -28 30 -2 30 10 0 24 -9 30 -19z m517 -503 c-3 -7 -5 -2 -5 12 0 14 2
19 5 13 2 -7 2 -19 0 -25z"/>
<path d="M1882 1154 c10 -10 20 -16 22 -13 3 3 -5 11 -17 18 -21 13 -21 12 -5
-5z"/>
<path d="M1877 1117 c-3 -8 1 -14 8 -14 7 0 11 6 8 14 -3 7 -6 13 -8 13 -2 0
-5 -6 -8 -13z"/>
</g>
</svg>
